<?xml version="1.0" encoding="UTF-8" standalone="no"?><!-- Generator: Gravit.io --><svg xmlns="http://www.w3.org/2000/svg" xmlns:xlink="http://www.w3.org/1999/xlink" style="isolation:isolate" viewBox="0 0 35 35" width="35pt" height="35pt"><defs><clipPath id="_clipPath_WGsDQ06zw6ympvHHYIZq2Ia2d9ck4ilu"><rect width="35" height="35"/></clipPath></defs><g clip-path="url(#_clipPath_WGsDQ06zw6ympvHHYIZq2Ia2d9ck4ilu)"><g><path d=" M 8.071 11.446 C 8.112 6.276 12.246 1.626 17.425 1.626 C 22.603 1.626 26.888 6.276 26.929 11.446 L 8.071 11.446 Z " fill="rgb(251,180,14)"/><path d=" M 35 15.272 C 34.976 17.617 34.511 19.933 33.619 22.105 C 32.756 24.225 31.514 26.172 29.955 27.85 C 28.402 29.528 26.536 30.89 24.465 31.859 C 22.322 32.851 19.986 33.369 17.617 33.374 C 15.249 33.369 12.904 32.851 10.746 31.859 C 8.655 30.895 6.766 29.543 5.184 27.869 C 3.596 26.2 2.321 24.253 1.429 22.129 C 0.508 19.962 0.024 17.631 0 15.272 C -0.005 14.634 0.245 14.016 0.695 13.56 C 1.141 13.105 1.755 12.851 2.398 12.851 L 32.602 12.851 C 33.24 12.851 33.854 13.105 34.305 13.56 C 34.755 14.016 35.005 14.63 35 15.272 Z  M 29.965 17.646 C 29.792 18.552 29.533 19.439 29.183 20.288 C 28.536 21.88 27.606 23.333 26.441 24.584 C 25.309 25.812 23.947 26.805 22.437 27.509 C 20.931 28.209 19.286 28.574 17.622 28.579 C 15.939 28.574 14.28 28.209 12.755 27.505 C 11.216 26.795 9.825 25.798 8.66 24.565 C 7.471 23.318 6.517 21.861 5.845 20.269 C 5.491 19.425 5.222 18.547 5.045 17.646 L 29.965 17.646 Z " fill-rule="evenodd" fill="rgb(251,180,14)"/></g></g></svg>